# xmcd CD database file
#
# Track frame offsets:
#	150
#	16131
#	34161
#	48631
#	65489
#	87568
#	104572
#	124683
#	145240
#	167740
#	186551
#	199251
#	214740
#	230040
#	251262
#
# Disc length: 3620 seconds
#
# Revision: 2
# Processed by: cddbd v1.5.2PL0 Copyright (c) Steve Scherf et al.
# Submitted via: CDex 1.70beta2
#
DISCID=e10e220f
DTITLE=Joe Wilson - Still On The Journey
DYEAR=2005
DGENRE=Jazz
TTITLE0=Thank Him With Praise
TTITLE1=New Beginning
TTITLE2=Messin' Around
TTITLE3=Rainbow (The Promise)
TTITLE4=In The Midst (On My Knees)
TTITLE5=Green
TTITLE6=Movie Theme 12
TTITLE7=The Mood Of Dance
TTITLE8=Pennsylvania
TTITLE9=Lead Me
TTITLE10=So Many Blessings
TTITLE11=Groovin' 2
TTITLE12=Tell Me Something
TTITLE13=A Song In My Sleep
TTITLE14=Heavenly Hideaway
EXTD=YEAR: 2005
EXTT0=
EXTT1=
EXTT2=
EXTT3=
EXTT4=
EXTT5=
EXTT6=
EXTT7=
EXTT8=
EXTT9=
EXTT10=
EXTT11=
EXTT12=
EXTT13=
EXTT14=
PLAYORDER=
